<?xml version="1.0" encoding="iso-8859-1"?>
<!-- Generator: Adobe Illustrator 21.0.0, SVG Export Plug-In . SVG Version: 6.00 Build 0)  -->
<svg version="1.1" id="Capa_1" xmlns="http://www.w3.org/2000/svg" xmlns:xlink="http://www.w3.org/1999/xlink" x="0px" y="0px"
	 viewBox="0 0 1080 1080" style="enable-background:new 0 0 1080 1080;" xml:space="preserve">
<g>
	<g id="File-JAVA">
		
			<linearGradient id="SVGID_1_" gradientUnits="userSpaceOnUse" x1="540" y1="1123" x2="540" y2="-69.536" gradientTransform="matrix(1 0 0 -1 0 1078)">
			<stop  offset="0" style="stop-color:#FFF33B"/>
			<stop  offset="0.014" style="stop-color:#FEE72E"/>
			<stop  offset="0.042" style="stop-color:#FED51B"/>
			<stop  offset="0.07" style="stop-color:#FDCA10"/>
			<stop  offset="0.1" style="stop-color:#FDC70C"/>
			<stop  offset="0.4" style="stop-color:#F3903F"/>
			<stop  offset="0.8" style="stop-color:#ED683C"/>
			<stop  offset="1" style="stop-color:#E93E3A"/>
		</linearGradient>
		<path style="fill:url(#SVGID_1_);" d="M1007.838,162c0.042-4.75-1.795-9.325-5.112-12.726l-144-144
			c-3.385-3.343-7.969-5.191-12.726-5.13V0H162c-49.681,0.06-89.94,40.319-90,90v900c0.06,49.681,40.319,89.94,90,90h756
			c49.681-0.06,89.94-40.319,90-90L1007.838,162z M864,61.452L946.548,144H864V61.452z M162,36h666v126c0,9.941,8.059,18,18,18h126
			v360H108V90C108,60.177,132.177,36,162,36z M972,936H108V576h864V936z M918,1044H162c-29.823,0-54-24.177-54-54v-18h864v18
			C972,1019.823,947.823,1044,918,1044z"/>
		
			<linearGradient id="SVGID_2_" gradientUnits="userSpaceOnUse" x1="234" y1="1123" x2="234" y2="-69.536" gradientTransform="matrix(1 0 0 -1 0 1078)">
			<stop  offset="0" style="stop-color:#FFF33B"/>
			<stop  offset="0.014" style="stop-color:#FEE72E"/>
			<stop  offset="0.042" style="stop-color:#FED51B"/>
			<stop  offset="0.07" style="stop-color:#FDCA10"/>
			<stop  offset="0.1" style="stop-color:#FDC70C"/>
			<stop  offset="0.4" style="stop-color:#F3903F"/>
			<stop  offset="0.8" style="stop-color:#ED683C"/>
			<stop  offset="1" style="stop-color:#E93E3A"/>
		</linearGradient>
		<path style="fill:url(#SVGID_2_);" d="M234,918c49.681-0.06,89.94-40.319,90-90V612c0-9.941-8.059-18-18-18s-18,8.059-18,18v216
			c0,29.823-24.177,54-54,54s-54-24.177-54-54c0-9.941-8.059-18-18-18s-18,8.059-18,18C144.06,877.681,184.319,917.94,234,918z"/>
		
			<linearGradient id="SVGID_3_" gradientUnits="userSpaceOnUse" x1="432" y1="1123" x2="432" y2="-69.536" gradientTransform="matrix(1 0 0 -1 0 1078)">
			<stop  offset="0" style="stop-color:#FFF33B"/>
			<stop  offset="0.014" style="stop-color:#FEE72E"/>
			<stop  offset="0.042" style="stop-color:#FED51B"/>
			<stop  offset="0.07" style="stop-color:#FDCA10"/>
			<stop  offset="0.1" style="stop-color:#FDC70C"/>
			<stop  offset="0.4" style="stop-color:#F3903F"/>
			<stop  offset="0.8" style="stop-color:#ED683C"/>
			<stop  offset="1" style="stop-color:#E93E3A"/>
		</linearGradient>
		<path style="fill:url(#SVGID_3_);" d="M360,918c9.941,0,18-8.059,18-18V774h108v126c0,9.941,8.059,18,18,18s18-8.059,18-18V648
			c0-29.823-24.177-54-54-54h-72c-29.823,0-54,24.177-54,54v252C342,909.941,350.059,918,360,918z M378,648c0-9.941,8.059-18,18-18
			h72c9.941,0,18,8.059,18,18v90H378V648z"/>
		
			<linearGradient id="SVGID_4_" gradientUnits="userSpaceOnUse" x1="846" y1="1123" x2="846" y2="-69.536" gradientTransform="matrix(1 0 0 -1 0 1078)">
			<stop  offset="0" style="stop-color:#FFF33B"/>
			<stop  offset="0.014" style="stop-color:#FEE72E"/>
			<stop  offset="0.042" style="stop-color:#FED51B"/>
			<stop  offset="0.07" style="stop-color:#FDCA10"/>
			<stop  offset="0.1" style="stop-color:#FDC70C"/>
			<stop  offset="0.4" style="stop-color:#F3903F"/>
			<stop  offset="0.8" style="stop-color:#ED683C"/>
			<stop  offset="1" style="stop-color:#E93E3A"/>
		</linearGradient>
		<path style="fill:url(#SVGID_4_);" d="M774,918c9.941,0,18-8.059,18-18V774h108v126c0,9.941,8.059,18,18,18s18-8.059,18-18V648
			c0-29.823-24.177-54-54-54h-72c-29.823,0-54,24.177-54,54v252C756,909.941,764.059,918,774,918z M792,648c0-9.941,8.059-18,18-18
			h72c9.941,0,18,8.059,18,18v90H792V648z"/>
		
			<linearGradient id="SVGID_5_" gradientUnits="userSpaceOnUse" x1="648.0003" y1="1123" x2="648.0003" y2="-69.536" gradientTransform="matrix(1 0 0 -1 0 1078)">
			<stop  offset="0" style="stop-color:#FFF33B"/>
			<stop  offset="0.014" style="stop-color:#FEE72E"/>
			<stop  offset="0.042" style="stop-color:#FED51B"/>
			<stop  offset="0.07" style="stop-color:#FDCA10"/>
			<stop  offset="0.1" style="stop-color:#FDC70C"/>
			<stop  offset="0.4" style="stop-color:#F3903F"/>
			<stop  offset="0.8" style="stop-color:#ED683C"/>
			<stop  offset="1" style="stop-color:#E93E3A"/>
		</linearGradient>
		<path style="fill:url(#SVGID_5_);" d="M630.54,904.356c2.417,9.643,12.193,15.501,21.836,13.084
			c6.441-1.614,11.47-6.643,13.084-13.084l72-288c2.629-9.587-3.011-19.491-12.598-22.12c-9.587-2.629-19.49,3.011-22.12,12.598
			c-0.074,0.268-0.141,0.538-0.202,0.81L648,825.786l-54.54-218.142c-2.182-9.699-11.814-15.792-21.512-13.61
			c-9.699,2.182-15.792,11.814-13.61,21.512c0.061,0.271,0.128,0.541,0.202,0.81L630.54,904.356z"/>
	</g>
</g>
<g>
</g>
<g>
</g>
<g>
</g>
<g>
</g>
<g>
</g>
<g>
</g>
<g>
</g>
<g>
</g>
<g>
</g>
<g>
</g>
<g>
</g>
<g>
</g>
<g>
</g>
<g>
</g>
<g>
</g>
</svg>
